# xmcd
# Track frame offsets:
# 150
# 10234
# 32312
# 52190
# 72841
# 91408
# 109223
# 113266
# 139820
# 159272
# 180807
# 200884
# 223808
# 243881
# 261349
# 267495
# 286334
# 308778
#
# Disc length: 4382 seconds
# Revision: 0
# Processed by: cddbd v1.5PL3 Copyright (c) Steve Scherf et al.
# Submitted via: VisiTrax 2.9.6.190 - For more info visit www.synapsa.com
#
DISCID=fd111c12
DTITLE=Juvenile - 400 Degreez
DYEAR=1900
DGENRE=Rap
TTITLE0=Juvenile - Big Tymers - Intro
TTITLE1=Juvenile - Ha
TTITLE2=Juvenile - Gone Ride With Me
TTITLE3=Juvenile - B.G. - Big Tymers - Flossin Season
TTITLE4=Juvenile - Ghetto Children
TTITLE5=Juvenile - Follow Me Now
TTITLE6=Juvenile - Cash Money Concert
TTITLE7=Juvenile - Turk - Welcome 2 the Nolia
TTITLE8=Juvenile - Big Tymers - The Hot Boys - U.P.T.
TTITLE9=Juvenile - Lil' Wayne - Run for It
TTITLE10=Juvenile - Hot Boys - Ha (Remix)
TTITLE11=Juvenile - Lil' Wayne - Paparue - Turk - Rich Niggaz
TTITLE12=Juvenile - Lil' Wayne - Manny Fresh - Back That Azz Up
TTITLE13=Juvenile - Big Tymers - Off the Top
TTITLE14=Juvenile - After Cash Money Concert
TTITLE15=Juvenile - 400 Degreez
TTITLE16=Juvenile - Juvenile on Fire
TTITLE17=Juvenile - Ha (Remix)
EXTD=
EXTT0=
EXTT1=
EXTT2=
EXTT3=
EXTT4=
EXTT5=
EXTT6=
EXTT7=
EXTT8=
EXTT9=
EXTT10=
EXTT11=
EXTT12=
EXTT13=
EXTT14=
EXTT15=
EXTT16=
EXTT17=
PLAYORDER=
